<svg xmlns="http://www.w3.org/2000/svg" viewBox="-10751.516 -2496 62.866 36.727" width="63" height="36"><defs><style>.a{fill:#5dc145;}.b{fill:#fff;}</style></defs><g transform="translate(-11046 -2530)"><path class="a" d="M214.7,0A34.113,34.113,0,0,0,199.24,3.654c-7.12,3.654-11.43,9.369-12.836,16.771l-2.9,16.3h3.373l2.811-16.115A19.8,19.8,0,0,1,200.739,6,31.239,31.239,0,0,1,214.98,2.623h15.365a6.662,6.662,0,0,1,3,.656A2.562,2.562,0,0,1,235.03,6.09a3.526,3.526,0,0,1-2.155,2.53,7.774,7.774,0,0,1-3.841.937H218.353a15.956,15.956,0,0,0-8.245,2.155,12.055,12.055,0,0,0-6.184,8.9l-2.811,16.115h13.96a34.113,34.113,0,0,0,15.459-3.654c7.12-3.654,11.43-9.369,12.836-16.771l3-16.3Zm17.707,20.893a3.993,3.993,0,0,1-2.061,2.53,8.026,8.026,0,0,1-3.841.937h-13.21a6.662,6.662,0,0,1-3-.656c-1.312-.75-1.874-1.593-1.686-2.811a3.894,3.894,0,0,1,2.623-2.811,8.522,8.522,0,0,1,3.279-.656h13.21a6.662,6.662,0,0,1,3,.656A2.562,2.562,0,0,1,232.406,20.893Z" transform="translate(110.984 34)"/><g transform="translate(297.951 36.623)"><path class="b" d="M231.934,24.6c1.218-.75,1.968-1.5,2.061-2.53a2.562,2.562,0,0,0-1.686-2.811,6.942,6.942,0,0,0-3-.656H216.1a8.522,8.522,0,0,0-3.279.656,3.723,3.723,0,0,0-2.623,2.811q-.281,1.686,1.686,2.811a6.662,6.662,0,0,0,3,.656h13.21A7.773,7.773,0,0,0,231.934,24.6Z" transform="translate(-188.649 -3.797)"/><path class="b" d="M210.435,11.888a16.916,16.916,0,0,1,8.245-2.155h10.681A8.026,8.026,0,0,0,233.2,8.8a3.751,3.751,0,0,0,2.155-2.53,2.562,2.562,0,0,0-1.686-2.811,6.663,6.663,0,0,0-3-.656H215.307a31.239,31.239,0,0,0-14.241,3.373c-6.184,3.185-9.931,8.057-11.055,14.616L187.2,36.9h14.335l2.811-16.115A11.709,11.709,0,0,1,210.435,11.888Z" transform="translate(-187.2 -2.8)"/></g></g></svg>
