<svg xmlns="http://www.w3.org/2000/svg" viewBox="-12992 -2515 280.027 63.367" width="280" height="64"><defs><style>.a{fill-rule:evenodd;}.b{fill:#5dc145;}.c{fill:#fff;}</style></defs><g transform="translate(-13278 -2530)"><g transform="translate(286 47.167)"><path class="a" d="M26.3,58.574a6.743,6.743,0,0,1-2.321.387H15.536a7.091,7.091,0,0,1-2-.258q-1.354-.387-1.354-1.16t1.354-1.16a7.4,7.4,0,0,1,2-.258H23.98a7.091,7.091,0,0,1,2,.258q1.354.387,1.354,1.16c.064.387-.322.709-1.031,1.031Zm0-6.06a6.743,6.743,0,0,1-2.321.387H17.147a13.717,13.717,0,0,0-5.028.838c-1.934.838-2.965,2-2.965,3.674l.064,5.608c0,.709-.645,1.289-1.869,1.676a9.929,9.929,0,0,1-2.772.387A9.929,9.929,0,0,1,1.8,64.7C.645,64.246,0,63.731,0,62.957V57.349q0-3.964,5.415-6A26.234,26.234,0,0,1,14.117,50h9.8a6.8,6.8,0,0,1,2,.258q1.354.387,1.354,1.16c.064.451-.258.838-.967,1.1Z" transform="translate(0 -49.936)"/><path class="a" d="M66.66,65.084H54.025a17.743,17.743,0,0,1-5.479-.9c-2.385-.838-3.545-2-3.545-3.545V54.448c0-1.547,1.16-2.707,3.545-3.545a17.132,17.132,0,0,1,5.479-.9H66.66a17.743,17.743,0,0,1,5.479.9c2.385.838,3.545,2,3.545,3.545v6.188c0,1.547-1.16,2.707-3.545,3.545a17.743,17.743,0,0,1-5.479.9Zm-.193-11.023c0-.451-.387-.838-1.1-1.031a4.807,4.807,0,0,0-1.676-.258H56.926a5.05,5.05,0,0,0-1.676.258c-.709.258-1.1.58-1.1,1.031v6.833c0,.451.387.774,1.1,1.031a4.807,4.807,0,0,0,1.676.258h6.769a5.05,5.05,0,0,0,1.676-.258c.709-.258,1.1-.645,1.1-1.031V54.061Z" transform="translate(-15.992 -49.936)"/><path d="M108.732,58.058c0-.451.451-.838,1.354-1.1a10.753,10.753,0,0,1,2-.322h3.739a5.05,5.05,0,0,0,1.676-.258c.709-.258,1.1-.58,1.1-1.031V53.8c0-.645-.9-.967-2.772-.967h-6.769c-1.8,0-2.772.322-2.772.967v.064l-.064,9.089c0,.709-.645,1.289-1.869,1.676a9.6,9.6,0,0,1-2.772.387,9.928,9.928,0,0,1-2.772-.387c-1.16-.387-1.8-.9-1.8-1.676V54.448a1.128,1.128,0,0,1,.064-.322c.193-1.418,1.483-2.514,3.739-3.288A15.936,15.936,0,0,1,106.089,50h11.474c3.868,0,6.64.58,8.38,1.741a2.716,2.716,0,0,1,1.483,2.063v1.16c0,1.225-.9,2.256-2.643,3.159a11.612,11.612,0,0,1-2.643.838l4.061,2.192c.838.451,1.289.967,1.289,1.612,0,.774-.645,1.354-2,1.74a9.176,9.176,0,0,1-2.9.516,5.35,5.35,0,0,1-2.643-.58l-10.185-5.415c-.709-.258-1.031-.58-1.031-.967Z" transform="translate(-34.471 -49.936)"/><path class="a" d="M151.419,64.762a9.787,9.787,0,0,0,2.45.322c1.869,0,3.094-.387,3.739-1.1l7.413-8.574,4.255,4.577a3.185,3.185,0,0,0,2.45.774,6.751,6.751,0,0,0,1.934-.322c.838-.258,1.225-.645,1.225-1.16a.748.748,0,0,0-.258-.645l-7.413-7.413a1.246,1.246,0,0,0-.58-.322,7.3,7.3,0,0,0-3.739-.838c-1.8,0-3.03.387-3.674,1.1l-9.669,10.765a1.659,1.659,0,0,0-.451.967c-.064.774.774,1.418,2.321,1.869Zm21.66-11.539,9.669,10.765c.645.709,1.869,1.1,3.674,1.1a8.552,8.552,0,0,0,2.9-.451c1.289-.387,1.934-.967,1.934-1.8a1.343,1.343,0,0,0-.451-.967L181.136,51.1c-.645-.709-1.869-1.1-3.674-1.1a8.552,8.552,0,0,0-2.9.451c-1.289.387-1.934.967-1.934,1.8a1.694,1.694,0,0,0,.451.967Z" transform="translate(-52.984 -49.936)"/><path d="M239.631,55.064V54.1c0-.451-.387-.838-1.1-1.031a4.807,4.807,0,0,0-1.676-.258H224.8a6.108,6.108,0,0,1-1.934-.258c-.9-.258-1.354-.58-1.354-1.1s.451-.838,1.354-1.1A6.108,6.108,0,0,1,224.8,50.1h15.02a17.743,17.743,0,0,1,5.479.9c2.385.838,3.545,2,3.545,3.545v8.509c0,.709-.645,1.289-1.869,1.676a9.975,9.975,0,0,1-2.772.451,8.065,8.065,0,0,1-2.772-.451c-1.225-.387-1.869-.9-1.869-1.676V59.189c0-.451-.387-.774-1.1-1.031a4.807,4.807,0,0,0-1.676-.258h-6.769a5.05,5.05,0,0,0-1.676.258c-.709.258-1.1.645-1.1,1.031v1.869c0,.451.387.774,1.1,1.031a4.807,4.807,0,0,0,1.676.258h3.352a7.091,7.091,0,0,1,2,.258q1.354.387,1.354,1.16,0,.677-1.354,1.16a7.4,7.4,0,0,1-2,.258h-6.253a17.743,17.743,0,0,1-5.479-.9c-2.385-.838-3.545-2-3.545-3.545v-1.16c0-1.547,1.16-2.707,3.545-3.545a17.1,17.1,0,0,1,5.479-.838h12.506Z" transform="translate(-77.506 -49.971)"/><path d="M278.465,62.957c0,.709.645,1.289,1.869,1.676a10.126,10.126,0,0,0,5.544,0c1.225-.387,1.869-.967,1.869-1.676l-.064-10.185h6.511a24.087,24.087,0,0,0,2.836-.129c.967-.193,1.418-.58,1.418-1.16a.617.617,0,0,0-.129-.451A9.136,9.136,0,0,0,294.13,50H271.955c-2.836,0-4.255.516-4.255,1.483,0,.58.451.967,1.418,1.16a15.364,15.364,0,0,0,2.836.129h6.511V62.957Z" transform="translate(-95.132 -49.936)"/><path d="M322.041,65.084a8.065,8.065,0,0,1-2.772-.451c-1.225-.387-1.869-.9-1.869-1.676V52.127c0-.774.645-1.354,1.869-1.676A9.975,9.975,0,0,1,322.041,50a8.065,8.065,0,0,1,2.772.451c1.225.387,1.869.9,1.869,1.676v10.83c0,.709-.645,1.289-1.869,1.676a10.377,10.377,0,0,1-2.772.451Z" transform="translate(-112.794 -49.936)"/><path class="a" d="M358.96,65.084H346.325a17.743,17.743,0,0,1-5.479-.9c-2.385-.838-3.545-2-3.545-3.545V54.448c0-1.547,1.16-2.707,3.545-3.545a17.132,17.132,0,0,1,5.479-.9H358.96a17.742,17.742,0,0,1,5.479.9c2.385.838,3.545,2,3.545,3.545v6.188c0,1.547-1.16,2.707-3.545,3.545a17.742,17.742,0,0,1-5.479.9Zm-.193-11.023c0-.451-.387-.838-1.1-1.031a4.807,4.807,0,0,0-1.676-.258h-6.769a5.05,5.05,0,0,0-1.676.258c-.709.258-1.1.58-1.1,1.031v6.833c0,.451.387.774,1.1,1.031a4.807,4.807,0,0,0,1.676.258h6.769a5.05,5.05,0,0,0,1.676-.258c.709-.258,1.1-.645,1.1-1.031V54.061Z" transform="translate(-119.866 -49.936)"/><path d="M418.18,59.247l-.065-4.9c0-1.547-1.225-2.707-3.61-3.545a17.037,17.037,0,0,0-5.415-.9H398.454a17.743,17.743,0,0,0-5.479.9c-2.385.838-3.545,2-3.545,3.545l-.129,8.509c0,.774.645,1.354,1.869,1.676a9.975,9.975,0,0,0,2.772.451,8.065,8.065,0,0,0,2.772-.451c1.225-.387,1.869-.9,1.869-1.676l.065-8.767c0-.451.387-.774,1.1-1.031a4.807,4.807,0,0,1,1.676-.258h4.835a5.05,5.05,0,0,1,1.676.258c.709.258,1.1.645,1.1,1.031l.064,8.767c0,.774.645,1.354,1.869,1.676a9.6,9.6,0,0,0,2.772.451,8.065,8.065,0,0,0,2.772-.451c1.225-.387,1.869-.9,1.869-1.676v-3.61Z" transform="translate(-138.345 -49.9)"/></g><path class="b" d="M204.966,0A23.472,23.472,0,0,0,194.33,2.514,15.882,15.882,0,0,0,185.5,14.053l-2,11.217h2.321l1.934-11.088a13.62,13.62,0,0,1,7.607-10.056,21.494,21.494,0,0,1,9.8-2.321h10.572a4.584,4.584,0,0,1,2.063.451,1.763,1.763,0,0,1,1.16,1.934,2.426,2.426,0,0,1-1.483,1.741,5.349,5.349,0,0,1-2.643.645H207.48a10.979,10.979,0,0,0-5.673,1.483,8.294,8.294,0,0,0-4.255,6.124L195.619,25.27h9.6a23.472,23.472,0,0,0,10.636-2.514,15.882,15.882,0,0,0,8.831-11.539L226.755,0ZM217.15,14.375a2.747,2.747,0,0,1-1.418,1.741,5.522,5.522,0,0,1-2.643.645H204a4.584,4.584,0,0,1-2.063-.451c-.9-.516-1.289-1.1-1.16-1.934a2.679,2.679,0,0,1,1.8-1.934,5.863,5.863,0,0,1,2.256-.451h9.089a4.584,4.584,0,0,1,2.063.451A1.763,1.763,0,0,1,217.15,14.375Z" transform="translate(220.79 15)"/><g transform="translate(339.956 71.018)"><path d="M83.7,87.5h1.483a4.617,4.617,0,0,1,3.03.645,3.739,3.739,0,0,1,0,5.415A4.151,4.151,0,0,1,85.5,94.2H83.764V87.5Zm1.483,5.673H85.7a2.527,2.527,0,0,0,1.741-.451,2.8,2.8,0,0,0,0-3.868,2.9,2.9,0,0,0-1.869-.451H84.8v4.706h.387Z" transform="translate(-83.7 -87.113)"/><path d="M95.364,87.5H96.4v6.64H95.3V87.5Z" transform="translate(-87.822 -87.113)"/><path d="M106.575,90.652V91.3a2.762,2.762,0,0,1-3.03,2.965,3.452,3.452,0,0,1-2.579-.967A3.5,3.5,0,0,1,100,90.781a3.215,3.215,0,0,1,1.031-2.514,3.5,3.5,0,0,1,2.514-.967,3.118,3.118,0,0,1,2.514,1.16l-.774.58a2.17,2.17,0,0,0-1.676-.774,2.352,2.352,0,0,0-2.45,2.514,2.387,2.387,0,0,0,2.45,2.514c1.225,0,2-.645,2-1.612v-.064H104v-.9h2.579Z" transform="translate(-89.493 -87.042)"/><path d="M113,87.5h1.1v6.64H113Z" transform="translate(-94.112 -87.113)"/><path d="M119.836,94.175h-1.1V88.5H117v-.9h4.577v.9h-1.74Z" transform="translate(-95.534 -87.149)"/><path d="M128.512,92.322h-2.643L125.1,94H124l3.223-6.9,3.223,6.9h-1.16Zm-.387-.9-.709-1.483-.258-.774a5.375,5.375,0,0,1-.258.774l-.709,1.483Z" transform="translate(-98.021 -86.971)"/><path d="M135.9,87.5H137v5.673h2.385v.967H135.9Z" transform="translate(-102.25 -87.113)"/><path class="b" d="M148.9,86.9h.967v7.026H148.9Z" transform="translate(-106.87 -86.9)"/><path d="M164.031,89.807a2.541,2.541,0,0,1-.322.9l-1.74,3.545-1.741-3.61a3.238,3.238,0,0,1-.322-.838,3.8,3.8,0,0,1-.129.9L159.067,94H158.1l1.547-6.9,1.934,4.19a8.585,8.585,0,0,1,.387.9,6.283,6.283,0,0,1,.387-.9l1.934-4.19L165.9,94h-1.031l-.709-3.288C164.16,90.581,164.1,90.323,164.031,89.807Z" transform="translate(-110.139 -86.971)"/><path d="M175.677,92.322h-2.643L172.26,94H171.1l3.223-6.9,3.223,6.9h-1.16Zm-.387-.9-.709-1.483-.258-.774a5.379,5.379,0,0,1-.258.774l-.709,1.483Z" transform="translate(-114.759 -86.971)"/><path d="M184.031,94.14H183V87.5h1.483a2.705,2.705,0,0,1,1.676.387,1.887,1.887,0,0,1,.645,1.483,1.6,1.6,0,0,1-1.547,1.8l2.256,3.03h-1.225L184.1,91.239h-.129v2.9Zm.258-3.8c.967,0,1.418-.129,1.418-.9,0-.838-.451-.967-1.418-.967H184.1V90.4h.193Z" transform="translate(-118.988 -87.113)"/><path d="M192.064,87.5h1.1v2.772l2.385-2.772h1.289l-2.643,2.965,2.965,3.674h-1.418L193.1,90.723V94.14H192V87.5Z" transform="translate(-122.187 -87.113)"/><path d="M202.1,87.5h3.674v.967h-2.643v1.676h2.643v.9h-2.643v2.127h2.643v.967H202.1Z" transform="translate(-125.776 -87.113)"/><path d="M212.436,94.175h-1.1V88.5H209.6v-.9h4.577v.9h-1.74Z" transform="translate(-128.441 -87.149)"/><path d="M219.1,87.5h1.1v6.64h-1.1Z" transform="translate(-131.817 -87.113)"/><path d="M224.064,87.1l4.19,4.061a4.437,4.437,0,0,1,.709.838V87.422h.967v6.9l-4.319-4.126a3.74,3.74,0,0,1-.645-.774v4.641H224V87.1Z" transform="translate(-133.558 -86.971)"/><path d="M242.875,90.652V91.3a2.762,2.762,0,0,1-3.03,2.965,3.452,3.452,0,0,1-2.579-.967,3.5,3.5,0,0,1-.967-2.514,3.215,3.215,0,0,1,1.031-2.514,3.5,3.5,0,0,1,2.514-.967,3.118,3.118,0,0,1,2.514,1.16l-.774.58a2.17,2.17,0,0,0-1.676-.774,2.352,2.352,0,0,0-2.45,2.514,2.387,2.387,0,0,0,2.45,2.514c1.225,0,2-.645,2-1.612v-.064H240.3v-.9h2.579Z" transform="translate(-137.929 -87.042)"/><path class="b" d="M254.5,86.9h.967v7.026H254.5Z" transform="translate(-144.397 -86.9)"/><path d="M264.7,87.5h3.674v.967h-2.643v1.676h2.643v.9h-2.643v2.127h2.643v.967H264.7Z" transform="translate(-148.022 -87.113)"/><path d="M273.364,87.1l4.19,4.061a4.44,4.44,0,0,1,.709.838V87.422h.967v6.9l-4.319-4.126a3.741,3.741,0,0,1-.645-.774v4.641H273.3V87.1Z" transform="translate(-151.078 -86.971)"/><path d="M292.075,90.652V91.3a2.762,2.762,0,0,1-3.03,2.965,3.452,3.452,0,0,1-2.579-.967,3.5,3.5,0,0,1-.967-2.514,3.215,3.215,0,0,1,1.031-2.514,3.5,3.5,0,0,1,2.514-.967,3.118,3.118,0,0,1,2.514,1.16l-.774.58a2.17,2.17,0,0,0-1.676-.774,2.352,2.352,0,0,0-2.45,2.514,2.387,2.387,0,0,0,2.45,2.514c1.225,0,2-.645,2-1.612v-.064H289.5v-.9h2.579Z" transform="translate(-155.414 -87.042)"/><path d="M298.5,87.5h1.1v6.64h-1.1Z" transform="translate(-160.033 -87.113)"/><path d="M303.564,87.1l4.19,4.061a4.44,4.44,0,0,1,.709.838V87.422h.967v6.9l-4.319-4.126a3.739,3.739,0,0,1-.645-.774v4.641H303.5V87.1Z" transform="translate(-161.81 -86.971)"/><path d="M316.2,87.5h3.674v.967h-2.643v1.676h2.643v.9h-2.643v2.127h2.643v.967H316.2Z" transform="translate(-166.323 -87.113)"/><path d="M324.8,87.5h3.674v.967h-2.643v1.676h2.643v.9h-2.643v2.127h2.643v.967H324.8Z" transform="translate(-169.38 -87.113)"/><path d="M334.431,94.14H333.4V87.5h1.483a2.706,2.706,0,0,1,1.676.387,1.887,1.887,0,0,1,.645,1.483,1.6,1.6,0,0,1-1.547,1.8l2.256,3.03h-1.225L334.5,91.239h-.064Zm.258-3.8c.967,0,1.418-.129,1.418-.9,0-.838-.451-.967-1.418-.967H334.5V90.4h.193Z" transform="translate(-172.436 -87.113)"/><path d="M342.874,92.328a1.17,1.17,0,0,0,1.289.9.932.932,0,0,0,1.031-.967c0-.645-.516-.838-1.16-1.16-1.16-.58-1.8-1.031-1.8-2a1.783,1.783,0,0,1,2-1.8,1.874,1.874,0,0,1,1.934,1.1l-.838.451a1.136,1.136,0,0,0-.967-.58.852.852,0,0,0-.967.838c0,.645.516.838,1.289,1.16,1.16.516,1.741,1.031,1.741,2a2,2,0,0,1-2.192,2.063,1.953,1.953,0,0,1-2.127-1.483Z" transform="translate(-175.527 -87.042)"/></g><g transform="translate(406.675 16.805)"><path class="c" d="M225.142,22.726c.838-.516,1.354-1.031,1.418-1.741a1.763,1.763,0,0,0-1.16-1.934,4.777,4.777,0,0,0-2.063-.451h-9.089a5.863,5.863,0,0,0-2.256.451,2.561,2.561,0,0,0-1.8,1.934,1.844,1.844,0,0,0,1.16,1.934,4.584,4.584,0,0,0,2.063.451H222.5A5.348,5.348,0,0,0,225.142,22.726Z" transform="translate(-195.36 -8.415)"/><path class="c" d="M203.187,9.053A11.639,11.639,0,0,1,208.86,7.57h7.349a5.522,5.522,0,0,0,2.643-.645,2.581,2.581,0,0,0,1.483-1.741,1.763,1.763,0,0,0-1.16-1.934,4.584,4.584,0,0,0-2.063-.451H206.539a21.494,21.494,0,0,0-9.8,2.321,13.471,13.471,0,0,0-7.607,10.056L187.2,26.265h9.863L199,15.177A8.056,8.056,0,0,1,203.187,9.053Z" transform="translate(-187.2 -2.8)"/></g></g></svg>
